Genre:Action | Drama | Mystery
Language:English
IMDb:http://www.imdb.com/title/tt1600195/
Source:1080p.DTS.x264-CHD Thanks!

Format : MPEG-4
Format profile : Base Media
Codec ID : isom
File size : 2.14 GiB
Duration : 1h 45mn
Overall bit rate : 2 885 Kbps

Video
ID : 1
Format : AVC
Format/Info : Advanced Video Codec
Format profile : High@L5.1
Format settings, CABAC : Yes
Format settings, ReFrames : 3 frames
Codec ID : avc1
Codec ID/Info : Advanced Video Coding
Duration : 1h 45mn
Bit rate mode : Variable
Bit rate : 2 500 Kbps
Maximum bit rate : 15.6 Mbps
Width : 1 280 pixels
Height : 528 pixels
Display aspect ratio : 2.40:1
Frame rate mode : Constant
Frame rate : 23.976 fps
Color space : YUV
Chroma subsampling : 4:2:0
Bit depth : 8 bits
Scan type : Progressive
Bits/(Pixel*Frame) : 0.154
Stream size : 1.81 GiB (85%)
Writing library : x264


Audio
ID : 2
Format : AAC
Format/Info : Advanced Audio Codec
Format version : Version 4
Format profile : LC
Format settings, SBR : No
Codec ID : 40
Duration : 1h 45mn
Bit rate mode : Variable
Bit rate : 437 Kbps
Maximum bit rate : 551 Kbps
Channel(s) : 6 channels
Channel positions : Front: L C R, Side: L R, LFE
Sampling rate : 48.0 KHz
Stream size : 332 MiB (15%)


Plot:
A thriller centered on a young man who sets out to uncover the truth about his life after finding his baby photo on a missing persons website
